<?xml version="1.0" standalone="no"?>
<!DOCTYPE svg PUBLIC "-//W3C//DTD SVG 20010904//EN"
 "http://www.w3.org/TR/2001/REC-SVG-20010904/DTD/svg10.dtd">
<svg version="1.0" xmlns="http://www.w3.org/2000/svg"
 width="48.000000pt" height="48.000000pt" viewBox="0 0 48.000000 48.000000"
 preserveAspectRatio="xMidYMid meet">

<g transform="translate(0.000000,48.000000) scale(0.100000,-0.100000)"
fill="#000000" stroke="none">
<path d="M77 402 c-14 -16 -17 -43 -17 -164 0 -188 -10 -178 182 -178 188 0
178 -10 178 182 0 188 10 178 -182 178 -128 0 -147 -2 -161 -18z m308 -162 l0
-145 -145 0 -145 0 -3 134 c-1 74 0 141 2 148 4 11 37 13 148 11 l143 -3 0
-145z"/>
<path d="M134 335 c-4 -9 -2 -21 4 -27 15 -15 44 -1 40 19 -4 23 -36 29 -44 8z"/>
<path d="M130 205 c0 -73 1 -75 25 -75 24 0 25 2 25 75 0 73 -1 75 -25 75 -24
0 -25 -2 -25 -75z"/>
<path d="M200 204 c0 -72 1 -74 24 -74 23 0 25 4 28 53 3 44 6 52 23 52 17 0
20 -8 23 -52 3 -49 5 -53 28 -53 23 0 24 3 24 55 0 74 -18 92 -94 93 l-56 0 0
-74z"/>
</g>
</svg>
